<?xml version="1.0" encoding="utf-8"?>
<!-- Generator: Adobe Illustrator 21.0.0, SVG Export Plug-In . SVG Version: 6.00 Build 0)  -->
<svg version="1.1" id="Слой_1" xmlns="http://www.w3.org/2000/svg" xmlns:xlink="http://www.w3.org/1999/xlink" x="0px" y="0px"
	 viewBox="0 0 1000 716" style="enable-background:new 0 0 1000 716;" xml:space="preserve">
<style type="text/css">
	.st0{fill:none;stroke:#000000;stroke-miterlimit:10;}
	.st1{stroke:#000000;stroke-miterlimit:10;}
</style>
<line class="st0" x1="481.8" y1="47.4" x2="481.5" y2="47"/>
<line class="st0" x1="526.5" y1="47" x2="526.2" y2="47.4"/>
<path class="st1" d="M954,663.5l-427.8-616l-22.2-32l-22.2,32L54,663.5l-24.9,35.6c0,0.1,0.1,0.2,0.1,0.4H979c0,0,0,0,0,0L954,663.5
	z M504,79.3l156.2,224.2H347.8L504,79.3z M306,663.5H97.1L306,363.6V663.5z M666,663.5H342v-324h324V663.5z M702,663.5V363.6
	l208.9,299.9H702z"/>
<polygon class="st1" points="522,591.5 522,627.5 378,627.5 378,447.5 414,447.5 414,591.5 "/>
<polygon class="st1" points="630,375.5 630,411.5 522,411.5 522,555.5 486,555.5 486,411.5 378,411.5 378,375.5 "/>
<line class="st0" x1="347.8" y1="303.5" x2="306" y2="303.5"/>
<line class="st0" x1="702" y1="699.5" x2="702" y2="663.5"/>
<line class="st0" x1="306" y1="363.6" x2="306" y2="308"/>
<line class="st0" x1="306" y1="699.5" x2="306" y2="663.5"/>
</svg>
